<?xml version="1.0" standalone="no"?><!DOCTYPE svg PUBLIC "-//W3C//DTD SVG 1.1//EN" "http://www.w3.org/Graphics/SVG/1.1/DTD/svg11.dtd"><svg width="1040" height="500" version="1.1" xmlns="http://www.w3.org/2000/svg" xmlns:xlink="http://www.w3.org/1999/xlink"><defs xmlns="http://www.w3.org/1999/xhtml"><style type="text/css"><![CDATA[
.text-default { font-family: sans-serif; font-size: 13px; alignment-baseline: central; }
.text-header { font-family: sans-serif; font-size: 14px; font-weight: bold; text-transform: uppercase; }
.text-value { font-family: sans-serif; font-size: 12px; font-weight: bold; alignment-baseline: middle; }
.text-comparison { font-family: sans-serif; font-size: 10px; font-weight: bold; alignment-baseline: central; }
.text-comparison.pos { fill: green; }
.text-comparison.neg { fill: red; }
.leading-column-bg { fill: rgb(238, 238, 238); }
.line-header { stroke: black; shape-rendering: crispEdges; }
.line-column { stroke: black; shape-rendering: crispEdges; }
.line-row { stroke: rgb(187, 187, 187); stroke-dasharray: 1, 2; shape-rendering: crispEdges; }
.line-row:last-of-type { stroke: black; stroke-dasharray: none; shape-rendering: crispEdges; }]]></style></defs><g><g transform="translate(28,44)"><rect class="leading-column-bg" x="-4" width="99.515625" height="196"/><text class="text-header" x="-4" y="-4">Page Group</text><line class="line-header" x1="-4.5" y1="0" x2="95.015625" y2="0"/><line class="line-column" x1="-4" y1="0" x2="-4" y2="196"/><g><text class="text-default" x="0" y="14">Radar Loop</text></g><g><text class="text-default" x="0" y="42">Other</text></g><g><text class="text-default" x="0" y="70">Forecasts</text></g><g><text class="text-default" x="0" y="98">Observations</text></g><g><text class="text-default" x="0" y="126">Warnings</text></g><g><text class="text-default" x="0" y="154">Flood</text></g><g><text class="text-default" x="0" y="182">Satellite</text></g></g><line class="line-row" x1="24" y1="72" x2="756.28125" y2="72"/><line class="line-row" x1="24" y1="100" x2="756.28125" y2="100"/><line class="line-row" x1="24" y1="128" x2="756.28125" y2="128"/><line class="line-row" x1="24" y1="156" x2="756.28125" y2="156"/><line class="line-row" x1="24" y1="184" x2="756.28125" y2="184"/><line class="line-row" x1="24" y1="212" x2="756.28125" y2="212"/><line class="line-row" x1="24" y1="240" x2="756.28125" y2="240"/><g transform="translate(136.015625,44)"><text class="text-header" x="-4" y="-4">Users</text><line class="line-header" x1="-4.5" y1="0" x2="48.734375" y2="0"/><line class="line-column" x1="-4" y1="0" x2="-4" y2="196"/><g><rect x="0" y="5" width="150" height="18" fill="darkblue"/><text class="text-value" x="2" y="14" fill="#fff">5,307,363</text><text class="text-comparison pos" y="14" x="153">+195.50%</text></g><g><rect x="0" y="33" width="121.20671791245483" height="18" fill="darkblue"/><text class="text-value" x="2" y="42" fill="#fff">4,288,587</text><text class="text-comparison pos" y="42" x="124.20671844482422">+210.40%</text></g><g><rect x="0" y="61" width="35.25680267206143" height="18" fill="darkblue"/><text class="text-value" x="37.25680267206143" y="70" fill="darkblue">1,247,471</text><text class="text-comparison pos" y="70" x="93.625">+85.70%</text></g><g><rect x="0" y="89" width="6.195958331849545" height="18" fill="darkblue"/><text class="text-value" x="8.195958331849546" y="98" fill="darkblue">219,228</text><text class="text-comparison pos" y="98" x="54.890625">+263.50%</text></g><g><rect x="0" y="117" width="14.844999296260685" height="18" fill="darkblue"/><text class="text-value" x="16.844999296260685" y="126" fill="darkblue">525,252</text><text class="text-comparison pos" y="126" x="63.546875">+623.80%</text></g><g><rect x="0" y="145" width="4.622832468779693" height="18" fill="darkblue"/><text class="text-value" x="6.622832468779693" y="154" fill="darkblue">163,567</text><text class="text-comparison pos" y="154" x="53.3125">+909.50%</text></g><g><rect x="0" y="173" width="2.7825400297661944" height="18" fill="darkblue"/><text class="text-value" x="4.782540029766194" y="182" fill="darkblue">98,453</text><text class="text-comparison pos" y="182" x="44.796875">+444.30%</text></g></g><g transform="translate(346.9375,44)"><text class="text-header" x="-4" y="-4">Sessions</text><line class="line-header" x1="-4.5" y1="0" x2="72.078125" y2="0"/><line class="line-column" x1="-4" y1="0" x2="-4" y2="196"/><g><rect x="0" y="5" width="150" height="18" fill="coral"/><text class="text-value" x="2" y="14" fill="#fff">3,528,510</text><text class="text-comparison pos" y="14" x="153">+166.10%</text></g><g><rect x="0" y="33" width="102.67831180866712" height="18" fill="coral"/><text class="text-value" x="2" y="42" fill="#fff">2,415,343</text><text class="text-comparison pos" y="42" x="105.67831420898438">+126.20%</text></g><g><rect x="0" y="61" width="48.52521319197055" height="18" fill="coral"/><text class="text-value" x="50.52521319197055" y="70" fill="coral">1,141,478</text><text class="text-comparison pos" y="70" x="107.21875">+39.10%</text></g><g><rect x="0" y="89" width="5.923123358017974" height="18" fill="coral"/><text class="text-value" x="7.923123358017974" y="98" fill="coral">139,332</text><text class="text-comparison pos" y="98" x="54.625">+213.30%</text></g><g><rect x="0" y="117" width="4.671646105579976" height="18" fill="coral"/><text class="text-value" x="6.671646105579976" y="126" fill="coral">109,893</text><text class="text-comparison pos" y="126" x="53.359375">+653.90%</text></g><g><rect x="0" y="145" width="1.67854136731935" height="18" fill="coral"/><text class="text-value" x="3.67854136731935" y="154" fill="coral">39,485</text><text class="text-comparison pos" y="154" x="43.6875">+1418.10%</text></g><g><rect x="0" y="173" width="0.44772439358256033" height="18" fill="coral"/><text class="text-value" x="2.4477243935825603" y="182" fill="coral">10,532</text><text class="text-comparison pos" y="182" x="42.453125">+300.30%</text></g></g><g transform="translate(557.859375,44)"><text class="text-header" x="-4" y="-4">Page Views</text><line class="line-header" x1="-4.5" y1="0" x2="88.140625" y2="0"/><line class="line-column" x1="-4" y1="0" x2="-4" y2="196"/><g><rect x="0" y="5" width="150" height="18" fill="purple"/><text class="text-value" x="2" y="14" fill="#fff">30,571,761</text><text class="text-comparison pos" y="14" x="153">+236.30%</text></g><g><rect x="0" y="33" width="53.329155621751724" height="18" fill="purple"/><text class="text-value" x="55.329155621751724" y="42" fill="purple">10,869,108</text><text class="text-comparison pos" y="42" x="118.703125">+192.60%</text></g><g><rect x="0" y="61" width="14.358152283082417" height="18" fill="purple"/><text class="text-value" x="16.35815228308242" y="70" fill="purple">2,926,360</text><text class="text-comparison pos" y="70" x="73.046875">+71.20%</text></g><g><rect x="0" y="89" width="8.388393131818608" height="18" fill="purple"/><text class="text-value" x="10.388393131818608" y="98" fill="purple">1,709,653</text><text class="text-comparison pos" y="98" x="67.078125">+261.30%</text></g><g><rect x="0" y="117" width="8.416973428517906" height="18" fill="purple"/><text class="text-value" x="10.416973428517906" y="126" fill="purple">1,715,478</text><text class="text-comparison pos" y="126" x="67.109375">+493.40%</text></g><g><rect x="0" y="145" width="1.8431224815606795" height="18" fill="purple"/><text class="text-value" x="3.8431224815606795" y="154" fill="purple">375,650</text><text class="text-comparison pos" y="154" x="50.53125">+935.40%</text></g><g><rect x="0" y="173" width="0.6996652891536081" height="18" fill="purple"/><text class="text-value" x="2.699665289153608" y="182" fill="purple">142,600</text><text class="text-comparison pos" y="182" x="49.390625">+419.30%</text></g></g></g></svg>